<svg version="1.1" xmlns="http://www.w3.org/2000/svg" xmlns:xlink="http://www.w3.org/1999/xlink" width="460" height="580"><defs/><g><g transform="translate(-334,-78) scale(1,1)"><rect fill="#C0C0C0" stroke="none" x="351" y="95" width="176" height="15" opacity="0.2"/></g><g transform="translate(-334,-78) scale(1,1)"><rect fill="#C0C0C0" stroke="none" x="351" y="109" width="440" height="546" opacity="0.2"/></g><g transform="translate(-334,-78) scale(1,1)"><rect fill="#ffffff" stroke="none" x="344" y="103" width="440" height="545"/></g><g transform="translate(-334,-78) scale(1,1)"><path fill="none" stroke="#000000" d="M 344 103 L 784 103 L 784 648 L 344 648 L 344 103 Z Z" stroke-miterlimit="10"/></g><g transform="translate(-334,-78) scale(1,1)"><rect fill="#ffffff" stroke="none" x="344" y="88" width="176" height="15"/></g><g transform="translate(-334,-78) scale(1,1)"><path fill="none" stroke="#000000" d="M 344 88 L 520 88 L 520 103 L 344 103 L 344 88 Z Z" stroke-miterlimit="10"/></g><g transform="translate(-334,-78) scale(1,1)"><rect fill="#ffffff" stroke="none" x="344" y="102" width="440" height="546"/></g><g transform="translate(-334,-78) scale(1,1)"><path fill="none" stroke="#000000" d="M 344 102 L 784 102 L 784 648 L 344 648 L 344 102 Z Z" stroke-miterlimit="10"/></g><g transform="translate(-334,-78) scale(1,1)"><g><path fill="none" stroke="none"/><text fill="#000000" stroke="none" font-family="Arial" font-size="13px" font-style="normal" font-weight="bold" text-decoration="none" x="535.82275390625" y="121">olympics</text></g></g><g transform="translate(-334,-78) scale(1,1)"><rect fill="#C0C0C0" stroke="none" x="478" y="327" width="168.3515625" height="102" opacity="0.2"/></g><g transform="translate(-334,-78) scale(1,1)"><rect fill="#ffffff" stroke="none" x="471" y="320" width="168.3515625" height="102"/></g><g transform="translate(-334,-78) scale(1,1)"><path fill="none" stroke="#000000" d="M 471 320 L 639.3515625 320 L 639.3515625 422 L 471 422 L 471 320 Z Z" stroke-miterlimit="10"/></g><g transform="translate(-334,-78) scale(1,1)"><path fill="none" stroke="#000000" d="M 471 345 L 639.3515625 345" stroke-miterlimit="10"/></g><g transform="translate(-334,-78) scale(1,1)"><g><path fill="none" stroke="none"/><text fill="#000000" stroke="none" font-family="Arial" font-size="13px" font-style="normal" font-weight="bold" text-decoration="none" x="533.146240234375" y="338">Athlete</text></g></g><g transform="translate(-334,-78) scale(1,1)"><g><path fill="none" stroke="none"/><text fill="#000000" stroke="none" font-family="Arial" font-size="13px" font-style="normal" font-weight="normal" text-decoration="none" x="476" y="361">+bib: Integer {unique}</text></g></g><g transform="translate(-334,-78) scale(1,1)"><g><path fill="none" stroke="none"/><text fill="#000000" stroke="none" font-family="Arial" font-size="13px" font-style="normal" font-weight="normal" text-decoration="none" x="476" y="376">+name: String</text></g></g><g transform="translate(-334,-78) scale(1,1)"><g><path fill="none" stroke="none"/><text fill="#000000" stroke="none" font-family="Arial" font-size="13px" font-style="normal" font-weight="normal" text-decoration="none" x="476" y="391">+age: Integer</text></g></g><g transform="translate(-334,-78) scale(1,1)"><g><path fill="none" stroke="none"/><text fill="#000000" stroke="none" font-family="Arial" font-size="13px" font-style="normal" font-weight="normal" text-decoration="none" x="476" y="406">+gender: String</text></g></g><g transform="translate(-334,-78) scale(1,1)"><rect fill="#C0C0C0" stroke="none" x="478" y="151" width="168.3515625" height="102" opacity="0.2"/></g><g transform="translate(-334,-78) scale(1,1)"><rect fill="#ffffff" stroke="none" x="471" y="144" width="168.3515625" height="102"/></g><g transform="translate(-334,-78) scale(1,1)"><path fill="none" stroke="#000000" d="M 471 144 L 639.3515625 144 L 639.3515625 246 L 471 246 L 471 144 Z Z" stroke-miterlimit="10"/></g><g transform="translate(-334,-78) scale(1,1)"><path fill="none" stroke="#000000" d="M 471 169 L 639.3515625 169" stroke-miterlimit="10"/></g><g transform="translate(-334,-78) scale(1,1)"><g><path fill="none" stroke="none"/><text fill="#000000" stroke="none" font-family="Arial" font-size="13px" font-style="normal" font-weight="bold" text-decoration="none" x="540.731689453125" y="162">NOC</text></g></g><g transform="translate(-334,-78) scale(1,1)"><g><path fill="none" stroke="none"/><text fill="#000000" stroke="none" font-family="Arial" font-size="13px" font-style="normal" font-weight="normal" text-decoration="none" x="476" y="185">+code: String {unique}</text></g></g><g transform="translate(-334,-78) scale(1,1)"><g><path fill="none" stroke="none"/><text fill="#000000" stroke="none" font-family="Arial" font-size="13px" font-style="normal" font-weight="normal" text-decoration="none" x="476" y="200">+name: String</text></g></g><g transform="translate(-334,-78) scale(1,1)"><g><path fill="none" stroke="none"/><text fill="#000000" stroke="none" font-family="Arial" font-size="13px" font-style="normal" font-weight="normal" text-decoration="none" x="476" y="215">+president: String</text></g></g><g transform="translate(-334,-78) scale(1,1)"><g><path fill="none" stroke="none"/><text fill="#000000" stroke="none" font-family="Arial" font-size="13px" font-style="normal" font-weight="normal" text-decoration="none" x="476" y="230">+yearOfFoundation: Integer</text></g></g><g transform="translate(-334,-78) scale(1,1)"><rect fill="#C0C0C0" stroke="none" x="599" y="533" width="168.3515625" height="102" opacity="0.2"/></g><g transform="translate(-334,-78) scale(1,1)"><rect fill="#ffffff" stroke="none" x="592" y="526" width="168.3515625" height="102"/></g><g transform="translate(-334,-78) scale(1,1)"><path fill="none" stroke="#000000" d="M 592 526 L 760.3515625 526 L 760.3515625 628 L 592 628 L 592 526 Z Z" stroke-miterlimit="10"/></g><g transform="translate(-334,-78) scale(1,1)"><path fill="none" stroke="#000000" d="M 592 551 L 760.3515625 551" stroke-miterlimit="10"/></g><g transform="translate(-334,-78) scale(1,1)"><g><path fill="none" stroke="none"/><text fill="#000000" stroke="none" font-family="Arial" font-size="13px" font-style="normal" font-weight="bold" text-decoration="none" x="658.475341796875" y="544">Event</text></g></g><g transform="translate(-334,-78) scale(1,1)"><g><path fill="none" stroke="none"/><text fill="#000000" stroke="none" font-family="Arial" font-size="13px" font-style="normal" font-weight="normal" text-decoration="none" x="597" y="567">+name: String</text></g></g><g transform="translate(-334,-78) scale(1,1)"><g><path fill="none" stroke="none"/><text fill="#000000" stroke="none" font-family="Arial" font-size="13px" font-style="normal" font-weight="normal" text-decoration="none" x="597" y="582">+date: LocalDateTime</text></g></g><g transform="translate(-334,-78) scale(1,1)"><g><path fill="none" stroke="none"/><text fill="#000000" stroke="none" font-family="Arial" font-size="13px" font-style="normal" font-weight="normal" text-decoration="none" x="597" y="597">+location: String</text></g></g><g transform="translate(-334,-78) scale(1,1)"><g><path fill="none" stroke="none"/><text fill="#000000" stroke="none" font-family="Arial" font-size="13px" font-style="normal" font-weight="normal" text-decoration="none" x="597" y="612">+awardsMedals: Boolean</text></g></g><g transform="translate(-334,-78) scale(1,1)"><rect fill="#C0C0C0" stroke="none" x="383" y="533" width="168.3515625" height="102" opacity="0.2"/></g><g transform="translate(-334,-78) scale(1,1)"><rect fill="#ffffff" stroke="none" x="376" y="526" width="168.3515625" height="102"/></g><g transform="translate(-334,-78) scale(1,1)"><path fill="none" stroke="#000000" d="M 376 526 L 544.3515625 526 L 544.3515625 628 L 376 628 L 376 526 Z Z" stroke-miterlimit="10"/></g><g transform="translate(-334,-78) scale(1,1)"><path fill="none" stroke="#000000" d="M 376 551 L 544.3515625 551" stroke-miterlimit="10"/></g><g transform="translate(-334,-78) scale(1,1)"><g><path fill="none" stroke="none"/><text fill="#000000" stroke="none" font-family="Arial" font-size="13px" font-style="normal" font-weight="bold" text-decoration="none" x="443.205322265625" y="544">Sport</text></g></g><g transform="translate(-334,-78) scale(1,1)"><g><path fill="none" stroke="none"/><text fill="#000000" stroke="none" font-family="Arial" font-size="13px" font-style="normal" font-weight="normal" text-decoration="none" x="381" y="567">+name: String {unique}</text></g></g><g transform="translate(-334,-78) scale(1,1)"><g><path fill="none" stroke="none"/><text fill="#000000" stroke="none" font-family="Arial" font-size="13px" font-style="normal" font-weight="normal" text-decoration="none" x="381" y="582">+type: String</text></g></g><g transform="translate(-334,-78) scale(1,1)"><g><path fill="none" stroke="none"/><text fill="#000000" stroke="none" font-family="Arial" font-size="13px" font-style="normal" font-weight="normal" text-decoration="none" x="381" y="597">+governingBody: String</text></g></g><g transform="translate(-334,-78) scale(1,1)"><g><path fill="none" stroke="none"/><text fill="#000000" stroke="none" font-family="Arial" font-size="13px" font-style="normal" font-weight="normal" text-decoration="none" x="381" y="612">+competitions: Integer</text></g></g><g transform="translate(-334,-78) scale(1,1)"><path fill="none" stroke="#000000" d="M 531 423 L 484 525" stroke-miterlimit="10"/></g><g transform="translate(-334,-78) scale(1,1)"><path fill="none" stroke="#000000" d="M 484.42984536654336 514.0084017103579 L 484 525 L 492.07618026022874 517.5317128868601" stroke-miterlimit="10"/></g><g transform="translate(-334,-78) scale(1,1)"><path fill="#FFFFFF" stroke="none" d="M 530.5701546334567 433.991598289642 L 531 423 L 522.9238197397713 430.4682871131399 L 521.7931442060947 442.9808359782626"/></g><g transform="translate(-334,-78) scale(1,1)"><path fill="none" stroke="#000000" d="M 530.5701546334567 433.991598289642 L 531 423 L 522.9238197397713 430.4682871131399 L 521.7931442060947 442.9808359782626 L 530.5701546334567 433.991598289642" stroke-miterlimit="10"/></g><g transform="translate(-334,-78) scale(1,1)"><g><path fill="none" stroke="none"/><text fill="#000000" stroke="none" font-family="Arial" font-size="13px" font-style="normal" font-weight="normal" text-decoration="none" x="413.75" y="481">+compete in</text></g></g><g transform="translate(-334,-78) scale(1,1)"><g><path fill="none" stroke="none"/><text fill="#000000" stroke="none" font-family="Arial" font-size="13px" font-style="normal" font-weight="normal" text-decoration="none" x="492.5" y="442">0..*</text></g></g><g transform="translate(-334,-78) scale(1,1)"><g><path fill="none" stroke="none"/><text fill="#000000" stroke="none" font-family="Arial" font-size="13px" font-style="normal" font-weight="normal" text-decoration="none" x="477.5" y="505">1</text></g></g><g transform="translate(-334,-78) scale(1,1)"><path fill="none" stroke="#000000" d="M 555 247 L 555 319" stroke-miterlimit="10"/></g><g transform="translate(-334,-78) scale(1,1)"><path fill="none" stroke="#000000" d="M 550.790482243984 308.83732514237585 L 555 319 L 559.209517756016 308.83732514237585" stroke-miterlimit="10"/></g><g transform="translate(-334,-78) scale(1,1)"><path fill="#000000" stroke="none" d="M 559.209517756016 257.16267485762415 L 555 247 L 550.790482243984 257.16267485762415 L 555 269"/></g><g transform="translate(-334,-78) scale(1,1)"><path fill="none" stroke="#000000" d="M 559.209517756016 257.16267485762415 L 555 247 L 550.790482243984 257.16267485762415 L 555 269 L 559.209517756016 257.16267485762415" stroke-miterlimit="10"/></g><g transform="translate(-334,-78) scale(1,1)"><g><path fill="none" stroke="none"/><text fill="#000000" stroke="none" font-family="Arial" font-size="13px" font-style="normal" font-weight="normal" text-decoration="none" x="568.5" y="289">+is represented by</text></g></g><g transform="translate(-334,-78) scale(1,1)"><g><path fill="none" stroke="none"/><text fill="#000000" stroke="none" font-family="Arial" font-size="13px" font-style="normal" font-weight="normal" text-decoration="none" x="561.5" y="265">1</text></g></g><g transform="translate(-334,-78) scale(1,1)"><g><path fill="none" stroke="none"/><text fill="#000000" stroke="none" font-family="Arial" font-size="13px" font-style="normal" font-weight="normal" text-decoration="none" x="522.5" y="310">0..*</text></g></g><g transform="translate(-334,-78) scale(1,1)"><path fill="none" stroke="#000000" d="M 586 423 L 645 525" stroke-miterlimit="10"/></g><g transform="translate(-334,-78) scale(1,1)"><path fill="none" stroke="#000000" d="M 636.2676890594669 518.3106991667405 L 645 525 L 643.5553736991142 514.095273737925" stroke-miterlimit="10"/></g><g transform="translate(-334,-78) scale(1,1)"><path fill="#FFFFFF" stroke="none" d="M 594.7323109405331 429.68930083325944 L 586 423 L 587.4446263008858 433.90472626207503 L 597.0154374929771 442.0436376997231"/></g><g transform="translate(-334,-78) scale(1,1)"><path fill="none" stroke="#000000" d="M 594.7323109405331 429.68930083325944 L 586 423 L 587.4446263008858 433.90472626207503 L 597.0154374929771 442.0436376997231 L 594.7323109405331 429.68930083325944" stroke-miterlimit="10"/></g><g transform="translate(-334,-78) scale(1,1)"><g><path fill="none" stroke="none"/><text fill="#000000" stroke="none" font-family="Arial" font-size="13px" font-style="normal" font-weight="normal" text-decoration="none" x="623.5" y="475">+participate in</text></g></g><g transform="translate(-334,-78) scale(1,1)"><g><path fill="none" stroke="none"/><text fill="#000000" stroke="none" font-family="Arial" font-size="13px" font-style="normal" font-weight="normal" text-decoration="none" x="609.5" y="442">1..*</text></g></g><g transform="translate(-334,-78) scale(1,1)"><g><path fill="none" stroke="none"/><text fill="#000000" stroke="none" font-family="Arial" font-size="13px" font-style="normal" font-weight="normal" text-decoration="none" x="653.5" y="517">0..*</text></g></g></g></svg>