<svg version="1.1" xmlns="http://www.w3.org/2000/svg" xmlns:xlink="http://www.w3.org/1999/xlink" width="788" height="428"><defs/><g><g transform="translate(-166,-230) scale(1,1)"><rect fill="#C0C0C0" stroke="none" x="183" y="247" width="307.2" height="15" opacity="0.2"/></g><g transform="translate(-166,-230) scale(1,1)"><rect fill="#C0C0C0" stroke="none" x="183" y="261" width="768" height="394" opacity="0.2"/></g><g transform="translate(-166,-230) scale(1,1)"><rect fill="#ffffff" stroke="none" x="176" y="255" width="768" height="393"/></g><g transform="translate(-166,-230) scale(1,1)"><path fill="none" stroke="#000000" d="M 176 255 L 944 255 L 944 648 L 176 648 L 176 255 Z Z" stroke-miterlimit="10"/></g><g transform="translate(-166,-230) scale(1,1)"><rect fill="#ffffff" stroke="none" x="176" y="240" width="307.2" height="15"/></g><g transform="translate(-166,-230) scale(1,1)"><path fill="none" stroke="#000000" d="M 176 240 L 483.2 240 L 483.2 255 L 176 255 L 176 240 Z Z" stroke-miterlimit="10"/></g><g transform="translate(-166,-230) scale(1,1)"><rect fill="#ffffff" stroke="none" x="176" y="254" width="768" height="394"/></g><g transform="translate(-166,-230) scale(1,1)"><path fill="none" stroke="#000000" d="M 176 254 L 944 254 L 944 648 L 176 648 L 176 254 Z Z" stroke-miterlimit="10"/></g><g transform="translate(-166,-230) scale(1,1)"><g><path fill="none" stroke="none"/><text fill="#000000" stroke="none" font-family="Arial" font-size="13px" font-style="normal" font-weight="bold" text-decoration="none" x="531.82275390625" y="273">olympics</text></g></g><g transform="translate(-166,-230) scale(1,1)"><rect fill="#C0C0C0" stroke="none" x="379" y="511" width="226.18505859375" height="107" opacity="0.2"/></g><g transform="translate(-166,-230) scale(1,1)"><rect fill="#ffffff" stroke="none" x="372" y="504" width="226.18505859375" height="107"/></g><g transform="translate(-166,-230) scale(1,1)"><path fill="none" stroke="#000000" d="M 372 504 L 598.18505859375 504 L 598.18505859375 611 L 372 611 L 372 504 Z Z" stroke-miterlimit="10"/></g><g transform="translate(-166,-230) scale(1,1)"><path fill="none" stroke="#000000" d="M 372 529 L 598.18505859375 529" stroke-miterlimit="10"/></g><g transform="translate(-166,-230) scale(1,1)"><g><path fill="none" stroke="none"/><text fill="#000000" stroke="none" font-family="Arial" font-size="13px" font-style="normal" font-weight="bold" text-decoration="none" x="463.06298828125" y="522">Athlete</text></g></g><g transform="translate(-166,-230) scale(1,1)"><g><path fill="none" stroke="none"/><text fill="#000000" stroke="none" font-family="Arial" font-size="13px" font-style="normal" font-weight="normal" text-decoration="none" x="377" y="545">+bib: Integer {unique}</text></g></g><g transform="translate(-166,-230) scale(1,1)"><g><path fill="none" stroke="none"/><text fill="#000000" stroke="none" font-family="Arial" font-size="13px" font-style="normal" font-weight="normal" text-decoration="none" x="377" y="560">+gender: String</text></g></g><g transform="translate(-166,-230) scale(1,1)"><g><path fill="none" stroke="none"/><text fill="#000000" stroke="none" font-family="Arial" font-size="13px" font-style="normal" font-weight="normal" text-decoration="none" x="377" y="575">+age: Integer {optional}</text></g></g><g transform="translate(-166,-230) scale(1,1)"><path fill="none" stroke="#000000" d="M 376 428 L 439 503" stroke-miterlimit="10"/></g><g transform="translate(-166,-230) scale(1,1)"><path fill="none" stroke="#000000" d="M 429.2401997304837 497.9259189305699 L 439 503 L 435.68669617888304 492.51086191391437" stroke-miterlimit="10"/></g><g transform="translate(-166,-230) scale(1,1)"><path fill="#000000" stroke="none" d="M 385.7598002695163 433.0740810694301 L 376 428 L 379.31330382111696 438.48913808608563 L 390.150225901312 444.84550702537143"/></g><g transform="translate(-166,-230) scale(1,1)"><path fill="none" stroke="#000000" d="M 385.7598002695163 433.0740810694301 L 376 428 L 379.31330382111696 438.48913808608563 L 390.150225901312 444.84550702537143 L 385.7598002695163 433.0740810694301" stroke-miterlimit="10"/></g><g transform="translate(-166,-230) scale(1,1)"><g><path fill="none" stroke="none"/><text fill="#000000" stroke="none" font-family="Arial" font-size="13px" font-style="normal" font-weight="normal" text-decoration="none" x="358.5" y="450">1</text></g></g><g transform="translate(-166,-230) scale(1,1)"><g><path fill="none" stroke="none"/><text fill="#000000" stroke="none" font-family="Arial" font-size="13px" font-style="normal" font-weight="normal" text-decoration="none" x="382.5" y="492">0..*</text></g></g><g transform="translate(-166,-230) scale(1,1)"><rect fill="#C0C0C0" stroke="none" x="223" y="327" width="226.18505859375" height="107" opacity="0.2"/></g><g transform="translate(-166,-230) scale(1,1)"><rect fill="#ffffff" stroke="none" x="216" y="320" width="226.18505859375" height="107"/></g><g transform="translate(-166,-230) scale(1,1)"><path fill="none" stroke="#000000" d="M 216 320 L 442.18505859375 320 L 442.18505859375 427 L 216 427 L 216 320 Z Z" stroke-miterlimit="10"/></g><g transform="translate(-166,-230) scale(1,1)"><path fill="none" stroke="#000000" d="M 216 345 L 442.18505859375 345" stroke-miterlimit="10"/></g><g transform="translate(-166,-230) scale(1,1)"><g><path fill="none" stroke="none"/><text fill="#000000" stroke="none" font-family="Arial" font-size="13px" font-style="normal" font-weight="bold" text-decoration="none" x="314.6484375" y="338">NOC</text></g></g><g transform="translate(-166,-230) scale(1,1)"><g><path fill="none" stroke="none"/><text fill="#000000" stroke="none" font-family="Arial" font-size="13px" font-style="normal" font-weight="normal" text-decoration="none" x="221" y="361">+code: String {unique}</text></g></g><g transform="translate(-166,-230) scale(1,1)"><g><path fill="none" stroke="none"/><text fill="#000000" stroke="none" font-family="Arial" font-size="13px" font-style="normal" font-weight="normal" text-decoration="none" x="221" y="376">+commiteeName: String</text></g></g><g transform="translate(-166,-230) scale(1,1)"><g><path fill="none" stroke="none"/><text fill="#000000" stroke="none" font-family="Arial" font-size="13px" font-style="normal" font-weight="normal" text-decoration="none" x="221" y="391">+yearOfFoundation: Integer {optional}</text></g></g><g transform="translate(-166,-230) scale(1,1)"><rect fill="#C0C0C0" stroke="none" x="535" y="327" width="226.18505859375" height="107" opacity="0.2"/></g><g transform="translate(-166,-230) scale(1,1)"><rect fill="#ffffff" stroke="none" x="528" y="320" width="226.18505859375" height="107"/></g><g transform="translate(-166,-230) scale(1,1)"><path fill="none" stroke="#000000" d="M 528 320 L 754.18505859375 320 L 754.18505859375 427 L 528 427 L 528 320 Z Z" stroke-miterlimit="10"/></g><g transform="translate(-166,-230) scale(1,1)"><path fill="none" stroke="#000000" d="M 528 345 L 754.18505859375 345" stroke-miterlimit="10"/></g><g transform="translate(-166,-230) scale(1,1)"><g><path fill="none" stroke="none"/><text fill="#000000" stroke="none" font-family="Arial" font-size="13px" font-style="normal" font-weight="bold" text-decoration="none" x="623.39208984375" y="338">Event</text></g></g><g transform="translate(-166,-230) scale(1,1)"><g><path fill="none" stroke="none"/><text fill="#000000" stroke="none" font-family="Arial" font-size="13px" font-style="normal" font-weight="normal" text-decoration="none" x="533" y="361">+id: String {unique}</text></g></g><g transform="translate(-166,-230) scale(1,1)"><g><path fill="none" stroke="none"/><text fill="#000000" stroke="none" font-family="Arial" font-size="13px" font-style="normal" font-weight="normal" text-decoration="none" x="533" y="376">+name: String</text></g></g><g transform="translate(-166,-230) scale(1,1)"><g><path fill="none" stroke="none"/><text fill="#000000" stroke="none" font-family="Arial" font-size="13px" font-style="normal" font-weight="normal" text-decoration="none" x="533" y="391">+date: LocalDateTime</text></g></g><g transform="translate(-166,-230) scale(1,1)"><g><path fill="none" stroke="none"/><text fill="#000000" stroke="none" font-family="Arial" font-size="13px" font-style="normal" font-weight="normal" text-decoration="none" x="533" y="406">+location: String</text></g></g><g transform="translate(-166,-230) scale(1,1)"><g><path fill="none" stroke="none"/><text fill="#000000" stroke="none" font-family="Arial" font-size="13px" font-style="normal" font-weight="normal" text-decoration="none" x="533" y="421">+awardsMedals: Boolean</text></g></g><g transform="translate(-166,-230) scale(1,1)"><rect fill="#C0C0C0" stroke="none" x="679" y="511" width="226.18505859375" height="107" opacity="0.2"/></g><g transform="translate(-166,-230) scale(1,1)"><rect fill="#ffffff" stroke="none" x="672" y="504" width="226.18505859375" height="107"/></g><g transform="translate(-166,-230) scale(1,1)"><path fill="none" stroke="#000000" d="M 672 504 L 898.18505859375 504 L 898.18505859375 611 L 672 611 L 672 504 Z Z" stroke-miterlimit="10"/></g><g transform="translate(-166,-230) scale(1,1)"><path fill="none" stroke="#000000" d="M 672 529 L 898.18505859375 529" stroke-miterlimit="10"/></g><g transform="translate(-166,-230) scale(1,1)"><g><path fill="none" stroke="none"/><text fill="#000000" stroke="none" font-family="Arial" font-size="13px" font-style="normal" font-weight="bold" text-decoration="none" x="768.1220703125" y="522">Sport</text></g></g><g transform="translate(-166,-230) scale(1,1)"><g><path fill="none" stroke="none"/><text fill="#000000" stroke="none" font-family="Arial" font-size="13px" font-style="normal" font-weight="normal" text-decoration="none" x="677" y="545">+sportName: String {unique}</text></g></g><g transform="translate(-166,-230) scale(1,1)"><g><path fill="none" stroke="none"/><text fill="#000000" stroke="none" font-family="Arial" font-size="13px" font-style="normal" font-weight="normal" text-decoration="none" x="677" y="560">+governingBody: String</text></g></g><g transform="translate(-166,-230) scale(1,1)"><g><path fill="none" stroke="none"/><text fill="#000000" stroke="none" font-family="Arial" font-size="13px" font-style="normal" font-weight="normal" text-decoration="none" x="677" y="575">+competitions: Integer</text></g></g><g transform="translate(-166,-230) scale(1,1)"><path fill="none" stroke="#000000" d="M 531 503 L 594 428" stroke-miterlimit="10"/></g><g transform="translate(-166,-230) scale(1,1)"><path fill="#FFFFFF" stroke="none" d="M 590.686696178883 438.48913808608563 L 594 428 L 584.2401997304837 433.0740810694301 L 579.8497740986879 444.84550702537143"/></g><g transform="translate(-166,-230) scale(1,1)"><path fill="none" stroke="#000000" d="M 590.686696178883 438.48913808608563 L 594 428 L 584.2401997304837 433.0740810694301 L 579.8497740986879 444.84550702537143 L 590.686696178883 438.48913808608563" stroke-miterlimit="10"/></g><g transform="translate(-166,-230) scale(1,1)"><path fill="none" stroke="#000000" d="M 534.313303821117 492.51086191391437 L 531 503 L 540.7598002695163 497.9259189305699" stroke-miterlimit="10"/></g><g transform="translate(-166,-230) scale(1,1)"><g><path fill="none" stroke="none"/><text fill="#000000" stroke="none" font-family="Arial" font-size="13px" font-style="normal" font-weight="normal" text-decoration="none" x="549.5" y="498">1..*</text></g></g><g transform="translate(-166,-230) scale(1,1)"><g><path fill="none" stroke="none"/><text fill="#000000" stroke="none" font-family="Arial" font-size="13px" font-style="normal" font-weight="normal" text-decoration="none" x="601.5" y="449">1..*</text></g></g><g transform="translate(-166,-230) scale(1,1)"><path fill="none" stroke="#000000" d="M 743 503 L 684 428" stroke-miterlimit="10"/></g><g transform="translate(-166,-230) scale(1,1)"><path fill="#FFFFFF" stroke="none" d="M 693.5919115703043 433.38472213094246 L 684 428 L 686.9749321823092 438.5900792494986 L 697.6022536601222 445.29100041540954"/></g><g transform="translate(-166,-230) scale(1,1)"><path fill="none" stroke="#000000" d="M 693.5919115703043 433.38472213094246 L 684 428 L 686.9749321823092 438.5900792494986 L 697.6022536601222 445.29100041540954 L 693.5919115703043 433.38472213094246" stroke-miterlimit="10"/></g><g transform="translate(-166,-230) scale(1,1)"><path fill="none" stroke="#000000" d="M 733.4080884296957 497.6152778690576 L 743 503 L 740.0250678176908 492.4099207505014" stroke-miterlimit="10"/></g><g transform="translate(-166,-230) scale(1,1)"><g><path fill="none" stroke="none"/><text fill="#000000" stroke="none" font-family="Arial" font-size="13px" font-style="normal" font-weight="normal" text-decoration="none" x="747.5" y="489">1</text></g></g><g transform="translate(-166,-230) scale(1,1)"><g><path fill="none" stroke="none"/><text fill="#000000" stroke="none" font-family="Arial" font-size="13px" font-style="normal" font-weight="normal" text-decoration="none" x="714.5" y="446">1..*</text></g></g></g></svg>